<svg width="355.8" height="99.94172410314057" viewBox="0 0 370.0169491525424 103.93516538979534" class="css-1j8o68f"><defs id="SvgjsDefs1593"><linearGradient id="SvgjsLinearGradient1598"><stop id="SvgjsStop1599" stop-color="#006838" offset="0"></stop><stop id="SvgjsStop1600" stop-color="#96cf24" offset="1"></stop></linearGradient></defs><g id="SvgjsG1594" featurekey="symbolFeature-0" transform="matrix(1.0393516538979535,0,0,1.0393516538979535,-7.476056279965879,0)" fill="#04a118"><g xmlns="http://www.w3.org/2000/svg"><rect x="7.193" y="21.403" fill-rule="evenodd" clip-rule="evenodd" width="8.827" height="78.597"></rect><path fill-rule="evenodd" clip-rule="evenodd" d="M64.184,17.359c5.943,0,10.766,4.875,10.766,10.884   c0,6.006-4.822,10.883-10.766,10.883c-5.94,0-10.759-4.877-10.759-10.883C53.425,22.233,58.243,17.359,64.184,17.359"></path><polygon fill-rule="evenodd" clip-rule="evenodd" points="11.786,10.641 11.786,15.722 16.021,15.722 20.373,17.896 31.375,17.896    35.731,15.722 39.963,15.722 39.963,10.641 35.731,10.641 31.375,8.587 20.373,8.587 16.021,10.641  "></polygon><rect x="35.731" y="21.403" fill-rule="evenodd" clip-rule="evenodd" width="8.949" height="78.597"></rect><polygon fill-rule="evenodd" clip-rule="evenodd" points="56.527,0 55.32,4.838 59.552,5.927 63.18,8.948 73.938,11.73    78.538,10.641 82.77,11.612 83.977,6.773 79.745,5.806 76.117,2.664 65.354,0 60.759,0.971  "></polygon><polygon fill-rule="evenodd" clip-rule="evenodd" points="84.219,21.885 62.815,97.586 71.4,100 92.807,24.424  "></polygon></g></g><g id="SvgjsG1595" featurekey="nameFeature-0" transform="matrix(1.0358526078884642,0,0,1.0358526078884642,107.56430762952354,25.205027808859747)" fill="url(#SvgjsLinearGradient1598)"><path d="M13.027 40.39063 c-6.0547 0 -10.781 -2.9102 -11.641 -8.2031 l6.0547 -1.3867 c0.39063 3.1641 2.7148 4.8047 5.8203 4.8047 c2.3828 0 4.2773 -1.0547 4.2578 -3.4375 c-0.019531 -2.6563 -3.1445 -3.4961 -6.582 -4.5508 c-4.1406 -1.2891 -8.5742 -2.8125 -8.5742 -8.0078 c0 -5.2539 4.2969 -8.2227 9.9609 -8.2227 c4.9609 0 9.9609 2.0117 11.094 7.4219 l-5.6641 1.4063 c-0.52734 -2.8125 -2.4219 -4.043 -5.0781 -4.043 c-2.3633 0 -4.375 0.97656 -4.375 3.3008 c0 2.168 2.7734 2.8906 5.9766 3.8477 c4.2578 1.2891 9.2969 2.9297 9.2969 8.5547 c0 5.9961 -5.0195 8.5156 -10.547 8.5156 z M29.9462453125 40 l0 -28.223 l5.8594 0 l0 28.223 l-5.8594 0 z M49.912090625 34.8242 l8.8477 0 l0 5.1758 l-14.707 0 l0 -28.223 l5.8594 0 l0 23.047 z M70.0536921875 34.8242 l8.8477 0 l0 5.1758 l-14.707 0 l0 -28.223 l5.8594 0 l0 23.047 z M105.50759375 11.777000000000001 l-9.2773 14.707 l0 13.516 l-5.8789 0 l0 -13.379 l-9.3359 -14.844 l6.4844 0 l5.7617 9.6094 l5.7813 -9.6094 l6.4648 0 z M140.673765625 40 l-2.0508 -5.8203 l-11.855 0 l-2.0508 5.8203 l-5.9961 0 l10.391 -28.223 l7.168 0 l10.391 28.223 l-5.9961 0 z M128.486765625 29.277 l8.418 0 l-4.1992 -11.973 z M161.2447734375 40.39063 c-6.0547 0 -10.781 -2.9102 -11.641 -8.2031 l6.0547 -1.3867 c0.39063 3.1641 2.7148 4.8047 5.8203 4.8047 c2.3828 0 4.2773 -1.0547 4.2578 -3.4375 c-0.019531 -2.6563 -3.1445 -3.4961 -6.582 -4.5508 c-4.1406 -1.2891 -8.5742 -2.8125 -8.5742 -8.0078 c0 -5.2539 4.2969 -8.2227 9.9609 -8.2227 c4.9609 0 9.9609 2.0117 11.094 7.4219 l-5.6641 1.4063 c-0.52734 -2.8125 -2.4219 -4.043 -5.0781 -4.043 c-2.3633 0 -4.375 0.97656 -4.375 3.3008 c0 2.168 2.7734 2.8906 5.9766 3.8477 c4.2578 1.2891 9.2969 2.9297 9.2969 8.5547 c0 5.9961 -5.0195 8.5156 -10.547 8.5156 z M195.95671875 11.777000000000001 l5.8594 0 l0 28.223 l-5.8594 0 l0 -11.602 l-11.934 0 l0 11.602 l-5.8594 0 l0 -28.223 l5.8594 0 l0 11.523 l11.934 0 l0 -11.523 z M226.4506640625 16.934 l-10.469 0 l0 6.4063 l9.2773 0 l0 5.0977 l-9.2773 0 l0 6.3867 l10.469 0 l0 5.1758 l-16.367 0 l0 -28.223 l16.367 0 l0 5.1563 z M242.821921875 40.39063 c-6.0547 0 -10.781 -2.9102 -11.641 -8.2031 l6.0547 -1.3867 c0.39063 3.1641 2.7148 4.8047 5.8203 4.8047 c2.3828 0 4.2773 -1.0547 4.2578 -3.4375 c-0.019531 -2.6563 -3.1445 -3.4961 -6.582 -4.5508 c-4.1406 -1.2891 -8.5742 -2.8125 -8.5742 -8.0078 c0 -5.2539 4.2969 -8.2227 9.9609 -8.2227 c4.9609 0 9.9609 2.0117 11.094 7.4219 l-5.6641 1.4063 c-0.52734 -2.8125 -2.4219 -4.043 -5.0781 -4.043 c-2.3633 0 -4.375 0.97656 -4.375 3.3008 c0 2.168 2.7734 2.8906 5.9766 3.8477 c4.2578 1.2891 9.2969 2.9297 9.2969 8.5547 c0 5.9961 -5.0195 8.5156 -10.547 8.5156 z"></path></g></svg>